{
  "accessors": [
    {
      "bufferView": 0,
      "componentType": 5125,
      "count": 55950,
      "type": "SCALAR"
    },
    {
      "bufferView": 1,
      "componentType": 5126,
      "count": 11577,
      "max": [
        0.13440000397988228,
        0.25998129741760495,
        0.058589422932228394
      ],
      "min": [
        -0.13440000397988233,
        -0.259981297417605,
        -0.0585894229322284
      ],
      "type": "VEC3"
    },
    {
      "bufferView": 2,
      "componentType": 5126,
      "count": 11577,
      "max": [
        0.9999999999999982,
        0.9999999999999982,
        0.999774789303463
      ],
      "min": [
        -0.9999999999999982,
        -0.9999999999999982,
        -0.999774789303463
      ],
      "type": "VEC3"
    },
    {
      "bufferView": 3,
      "componentType": 5126,
      "count": 11577,
      "max": [
        0.9943546289203874,
        1.0
      ],
      "min": [
        0.0,
        0.0
      ],
      "type": "VEC2"
    }
  ],
  "asset": {
    "generator": "Adobe Illustrator",
    "version": "2.0"
  },
  "bufferViews": [
    {
      "buffer": 0,
      "byteLength": 223800,
      "target": 34963
    },
    {
      "buffer": 0,
      "byteLength": 138924,
      "byteOffset": 223800,
      "target": 34962
    },
    {
      "buffer": 0,
      "byteLength": 138924,
      "byteOffset": 362724,
      "target": 34962
    },
    {
      "buffer": 0,
      "byteLength": 92616,
      "byteOffset": 501648,
      "target": 34962
    }
  ],
  "buffers": [
    {
      "byteLength": 594264,
      "uri": "data:application/octet-stream;base64,"
    }
  ],
  "materials": [
    {
      "doubleSided": true,
      "pbrMetallicRoughness": {
        "baseColorFactor": [
          0.9140625,
          0.9140625,
          0.9140625,
          1.0
        ],
        "metallicFactor": 0.0,
        "roughnessFactor": 0.4000000059604645
      }
    }
  ],
  "meshes": [
    {
      "primitives": [
        {
          "attributes": {
            "NORMAL": 2,
            "POSITION": 1,
            "TEXCOORD_0": 3
          },
          "indices": 0,
          "material": 0,
          "mode": 4
        }
      ]
    }
  ],
  "nodes": [
    {
      "mesh": 0
    }
  ],
  "scenes": [
    {
      "nodes": [
        0
      ]
    }
  ]
}
